# xmcd
#
# Track frame offsets: 
#        150
#        25942
#        45685
#        65242
#        93630
#        107415
#        131035
#        168380
#        189332
#        215975
#        238312
#        250952
#        275095
#
# Disc length: 3865 seconds
#
# Revision: 0
# Processed by: cddbd v1.5.2PL0 Copyright (c) Steve Scherf et al.
# Submitted via: ExactAudioCopy v0.99pb5
#
DISCID=cc0f170d
DTITLE=Eddie Vaan Shaw - The Trail Of Tears 
DYEAR=1994
DGENRE=Blues
TTITLE0=Please Tell Me
TTITLE1=Geche Woman
TTITLE2=My Woman's Ugly
TTITLE3=Heart Of Yours
TTITLE4=Tears Are Fallin'
TTITLE5=I'm Ready
TTITLE6=Sky Is Crying
TTITLE7=Oh, How Can They Love
TTITLE8=I'm Crazy Now
TTITLE9=Luck Over-Due
TTITLE10=Blues-Men Of Yesterday
TTITLE11=Stone Cold Blue
TTITLE12=Bad Ass Slide
EXTD=
EXTT0=
EXTT1=
EXTT2=
EXTT3=
EXTT4=
EXTT5=
EXTT6=
EXTT7=
EXTT8=
EXTT9=
EXTT10=
EXTT11=
EXTT12=
PLAYORDER=
